HIERARCHY
ROOT Hips
{
	OFFSET 0.00 0.00 0.00
	CHANNELS 6 Xposition Yposition Zposition Xrotation Yrotation Zrotation
	JOINT Spine
	{
		OFFSET 0.00000 2.10617 3.15926
		CHANNELS 3 Xrotation Yrotation Zrotation
		JOINT Spine1
		{
			OFFSET 0.00000 0.73147 4.14835
			CHANNELS 3 Xrotation Yrotation Zrotation
			JOINT Spine2
			{
				OFFSET 0.00000 0.36713 4.19631
				CHANNELS 3 Xrotation Yrotation Zrotation
				JOINT Spine3
				{
					OFFSET 0.00000 0.00000 4.21234
					CHANNELS 3 Xrotation Yrotation Zrotation
					JOINT Neck
					{
						OFFSET 0.00000 -1.57962 11.05740
						CHANNELS 3 Xrotation Yrotation Zrotation
						JOINT Head
						{
							OFFSET 0.00000 -1.00576 5.70398
							CHANNELS 3 Xrotation Yrotation Zrotation
							End Site
							{
								OFFSET 0.00000 0.00001 6.81873
							}
						}
					}
					JOINT RightShoulder
					{
						OFFSET -1.28113 -2.13521 6.91810
						CHANNELS 3 Xrotation Yrotation Zrotation
						JOINT RightArm
						{
							OFFSET -6.36294 0.00000 0.00000
							CHANNELS 3 Xrotation Yrotation Zrotation
							JOINT RightForeArm
							{
								OFFSET -10.12221 0.00000 0.00000
								CHANNELS 3 Xrotation Yrotation Zrotation
								JOINT RightHand
								{
									OFFSET -10.76713 0.00000 0.00000
									CHANNELS 3 Xrotation Yrotation Zrotation
									JOINT RightHandEnd
									{
										OFFSET -2.78915 0.00000 0.00000
										CHANNELS 3 Xrotation Yrotation Zrotation
										End Site
										{
											OFFSET -2.78915 0.00000 0.00000
										}
									}
									JOINT RightHandThumb1
									{
										OFFSET -1.11566 -1.85944 -0.74377
										CHANNELS 3 Yrotation Xrotation Zrotation
										End Site
										{
											OFFSET -2.69412 -0.72189 0.00000
										}
									}
								}
							}
						}
					}
					JOINT LeftShoulder
					{
						OFFSET 1.28113 -2.13521 6.91810
						CHANNELS 3 Xrotation Yrotation Zrotation
						JOINT LeftArm
						{
							OFFSET 6.36294 0.00000 0.00000
							CHANNELS 3 Xrotation Yrotation Zrotation
							JOINT LeftForeArm
							{
								OFFSET 10.12221 0.00000 0.00000
								CHANNELS 3 Xrotation Yrotation Zrotation
								JOINT LeftHand
								{
									OFFSET 10.76713 0.00000 0.00000
									CHANNELS 3 Xrotation Yrotation Zrotation
									JOINT LeftHandEnd
									{
										OFFSET 2.78915 0.00000 0.00000
										CHANNELS 3 Xrotation Yrotation Zrotation
										End Site
										{
											OFFSET 2.78915 0.00000 0.00000
										}
									}
									JOINT LeftHandThumb1
									{
										OFFSET 1.11566 -1.85944 -0.74377
										CHANNELS 3 Yrotation Xrotation Zrotation
										End Site
										{
											OFFSET 2.69412 -0.72189 0.00000
										}
									}
								}
							}
						}
					}
				}
			}
		}
	}
	JOINT RightUpLeg
	{
		OFFSET -3.80068 0.00000 -1.11031
		CHANNELS 3 Xrotation Yrotation Zrotation
		JOINT RightLeg
		{
			OFFSET 0.00001 0.00000 -17.00167
			CHANNELS 3 Xrotation Yrotation Zrotation
			JOINT RightFoot
			{
				OFFSET 0.00001 0.00000 -17.96841
				CHANNELS 3 Xrotation Yrotation Zrotation
				JOINT RightToeBase
				{
					OFFSET 0.00000 -5.07501 -1.84715
					CHANNELS 3 Xrotation Yrotation Zrotation
					End Site
					{
						OFFSET 0.00000 -3.07471 -0.00000
					}
				}
			}
		}
	}
	JOINT LeftUpLeg
	{
		OFFSET 3.80068 0.00000 -1.11031
		CHANNELS 3 Xrotation Yrotation Zrotation
		JOINT LeftLeg
		{
			OFFSET 0.00001 0.00000 -17.00167
			CHANNELS 3 Xrotation Yrotation Zrotation
			JOINT LeftFoot
			{
				OFFSET 0.00001 0.00000 -17.96841
				CHANNELS 3 Xrotation Yrotation Zrotation
				JOINT LeftToeBase
				{
					OFFSET 0.00000 -5.07501 -1.84715
					CHANNELS 3 Xrotation Yrotation Zrotation
					End Site
					{
						OFFSET 0.00000 -3.07471 -0.00000
					}
				}
			}
		}
	}
}
MOTION
Frames: 9
Frame Time: 0.008342
 8.5826 67.9832 37.9461 -0.4541 -1.2282 4.6627 0.5736 2.3113 0.3804 0.2269 0.4051 0.0084 1.3607 -2.8327 -0.4845 -0.0196 -1.1323 1.4342 -0.5616 -2.7797 3.0040 0.9261 2.9221 6.2095 -10.5710 4.6539 1.6698 -29.1096 -4.3316 -34.3016 -0.0000 0.0000 40.7372 4.3801 15.8718 -0.0673 0.0000 -0.0000 -0.0000 0.0000 0.0000 -0.0000 -13.0310 0.8014 -5.8660 -27.6256 1.6105 37.1249 -0.0000 -0.0000 -41.2555 -7.1381 -12.8638 7.1628 0.0000 0.0000 0.0000 0.0000 0.0000 0.0000 1.4117 0.3825 -28.1185 6.1766 0.0000 0.0000 -7.1809 3.0310 1.7897 -3.1620 0.0000 -0.0000 0.7472 -0.2606 14.4612 4.6180 0.0000 0.0000 -6.4512 21.7734 2.8653 11.8701 0.0000 0.0000
 8.5836 67.9855 37.9459 -0.4563 -1.2261 4.6666 0.5764 2.3077 0.3794 0.2269 0.4050 0.0077 1.3600 -2.8328 -0.4859 -0.0195 -1.1315 1.4340 -0.5540 -2.7655 2.9901 0.9203 2.9129 6.1859 -10.5713 4.6524 1.6682 -29.1108 -4.3391 -34.3070 -0.0000 0.0000 40.7403 4.3880 15.8665 -0.0638 0.0000 0.0000 0.0000 -0.0000 0.0000 0.0000 -13.0316 0.7986 -5.8677 -27.6346 1.6176 37.1290 -0.0000 -0.0000 -41.2530 -7.1799 -12.8413 7.1504 0.0000 0.0000 0.0000 0.0000 0.0000 0.0000 1.4072 0.3835 -28.1125 6.1838 0.0000 0.0000 -7.1796 3.0324 1.7822 -3.1647 0.0000 -0.0000 0.7320 -0.2638 14.4353 4.6444 0.0000 0.0000 -6.4705 21.7672 2.8860 11.8715 0.0000 0.0000
 8.5849 67.9886 37.9457 -0.4576 -1.2234 4.6719 0.5779 2.3033 0.3785 0.2286 0.4045 0.0071 1.3585 -2.8321 -0.4896 -0.0195 -1.1295 1.4326 -0.5449 -2.7506 2.9721 0.9138 2.9018 6.1573 -10.5716 4.6474 1.6675 -29.1151 -4.3474 -34.3126 -0.0000 0.0000 40.7424 4.3971 15.8606 -0.0586 0.0000 -0.0000 0.0000 0.0000 -0.0000 0.0000 -13.0314 0.7895 -5.8674 -27.6468 1.6323 37.1362 -0.0000 -0.0000 -41.2518 -7.2231 -12.8194 7.1375 -0.0000 0.0000 -0.0000 0.0000 -0.0000 0.0000 1.3989 0.3852 -28.1037 6.1943 0.0000 0.0000 -7.1782 3.0349 1.7715 -3.1691 0.0000 -0.0000 0.7107 -0.2677 14.4043 4.6782 0.0000 0.0000 -6.4939 21.7592 2.9103 11.8736 0.0000 0.0000
 8.5863 67.9929 37.9454 -0.4535 -1.2189 4.6794 0.5750 2.2981 0.3770 0.2297 0.4035 0.0064 1.3575 -2.8314 -0.4942 -0.0191 -1.1276 1.4309 -0.5358 -2.7328 2.9502 0.9084 2.8878 6.1230 -10.5736 4.6396 1.6669 -29.1214 -4.3552 -34.3189 -0.0000 0.0000 40.7444 4.4075 15.8545 -0.0527 -0.0000 -0.0000 0.0000 0.0000 -0.0000 0.0000 -13.0334 0.7804 -5.8682 -27.6536 1.6494 37.1457 -0.0000 -0.0000 -41.2507 -7.2622 -12.7975 7.1262 0.0000 0.0000 0.0000 0.0000 0.0000 0.0000 1.3814 0.3864 -28.0916 6.2082 0.0000 0.0000 -7.1758 3.0389 1.7560 -3.1753 0.0000 -0.0000 0.6762 -0.2736 14.3647 4.7226 0.0000 0.0000 -6.5236 21.7491 2.9417 11.8764 0.0000 0.0000
 8.5880 67.9975 37.9451 -0.4542 -1.2134 4.6884 0.5776 2.2922 0.3744 0.2301 0.4021 0.0064 1.3563 -2.8312 -0.5001 -0.0189 -1.1249 1.4287 -0.5251 -2.7133 2.9248 0.9008 2.8709 6.0842 -10.5760 4.6309 1.6668 -29.1296 -4.3642 -34.3272 -0.0000 0.0000 40.7457 4.4180 15.8476 -0.0465 0.0000 0.0000 0.0000 -0.0000 0.0000 -0.0000 -13.0350 0.7686 -5.8705 -27.6528 1.6713 37.1580 -0.0000 -0.0000 -41.2492 -7.2901 -12.7787 7.1159 0.0000 -0.0000 -0.0000 -0.0000 -0.0000 0.0000 1.3691 0.3860 -28.0791 6.2204 0.0000 0.0000 -7.1716 3.0433 1.7392 -3.1836 0.0000 -0.0000 0.6431 -0.2812 14.3220 4.7726 0.0000 0.0000 -6.5567 21.7384 2.9747 11.8800 0.0000 0.0000
 8.5901 68.0030 37.9447 -0.4526 -1.2084 4.6979 0.5779 2.2863 0.3728 0.2327 0.4010 0.0055 1.3536 -2.8303 -0.5067 -0.0185 -1.1221 1.4263 -0.5148 -2.6928 2.8965 0.8934 2.8516 6.0422 -10.5785 4.6210 1.6663 -29.1410 -4.3744 -34.3360 -0.0000 0.0000 40.7457 4.4290 15.8410 -0.0398 -0.0000 0.0000 0.0000 0.0000 0.0000 -0.0000 -13.0367 0.7568 -5.8738 -27.6400 1.6964 37.1712 -0.0000 -0.0000 -41.2473 -7.2974 -12.7626 7.1086 0.0000 -0.0000 0.0000 0.0000 0.0000 0.0000 1.3514 0.3879 -28.0660 6.2365 0.0000 0.0000 -7.1685 3.0485 1.7217 -3.1934 0.0000 -0.0000 0.6046 -0.2877 14.2770 4.8264 0.0000 0.0000 -6.5914 21.7264 3.0102 11.8847 0.0000 0.0000
 8.5921 68.0084 37.9444 -0.4567 -1.2009 4.7085 0.5859 2.2794 0.3698 0.2318 0.3996 0.0064 1.3523 -2.8303 -0.5151 -0.0185 -1.1190 1.4233 -0.5040 -2.6728 2.8667 0.8839 2.8305 5.9986 -10.5802 4.6103 1.6670 -29.1529 -4.3850 -34.3459 -0.0000 0.0000 40.7434 4.4368 15.8345 -0.0327 0.0000 -0.0000 -0.0000 0.0000 0.0000 0.0000 -13.0373 0.7424 -5.8784 -27.6128 1.7264 37.1865 -0.0000 -0.0000 -41.2450 -7.2769 -12.7488 7.1042 -0.0000 0.0000 0.0000 0.0000 -0.0000 0.0000 1.3417 0.3851 -28.0507 6.2472 0.0000 0.0000 -7.1618 3.0540 1.7010 -3.2047 0.0000 -0.0000 0.5702 -0.2978 14.2342 4.8830 0.0000 0.0000 -6.6273 21.7163 3.0427 11.8899 0.0000 0.0000
 8.5943 68.0151 37.9441 -0.4498 -1.1932 4.7190 0.5825 2.2732 0.3678 0.2346 0.3976 0.0057 1.3493 -2.8293 -0.5228 -0.0185 -1.1162 1.4207 -0.4965 -2.6533 2.8360 0.8776 2.8078 5.9546 -10.5819 4.5974 1.6664 -29.1660 -4.3956 -34.3544 -0.0000 0.0000 40.7391 4.4440 15.8283 -0.0274 0.0000 -0.0000 -0.0000 -0.0000 -0.0000 0.0000 -13.0384 0.7326 -5.8839 -27.5655 1.7562 37.1986 -0.0000 -0.0000 -41.2405 -7.2249 -12.7372 7.1023 -0.0000 -0.0000 0.0000 0.0000 -0.0000 0.0000 1.3163 0.3846 -28.0335 6.2634 0.0000 0.0000 -7.1565 3.0609 1.6787 -3.2172 0.0000 -0.0000 0.5206 -0.3073 14.1914 4.9440 0.0000 0.0000 -6.6638 21.7061 3.0766 11.8957 0.0000 0.0000
 8.5964 68.0216 37.9437 -0.4466 -1.1842 4.7295 0.5850 2.2660 0.3652 0.2360 0.3960 0.0055 1.3457 -2.8283 -0.5307 -0.0188 -1.1136 1.4180 -0.4905 -2.6363 2.8049 0.8701 2.7850 5.9124 -10.5818 4.5841 1.6661 -29.1771 -4.4070 -34.3625 -0.0000 0.0000 40.7312 4.4479 15.8222 -0.0223 0.0000 -0.0000 0.0000 -0.0000 -0.0000 0.0000 -13.0365 0.7213 -5.8893 -27.5007 1.7902 37.2097 -0.0000 -0.0000 -41.2350 -7.1363 -12.7246 7.1034 0.0000 -0.0000 -0.0000 0.0000 -0.0000 0.0000 1.2965 0.3814 -28.0159 6.2756 0.0000 0.0000 -7.1493 3.0677 1.6560 -3.2302 0.0000 -0.0000 0.4750 -0.3188 14.1532 5.0051 0.0000 0.0000 -6.6996 21.6986 3.1063 11.9016 0.0000 0.0000
